<svg width="25" height="25" viewBox="0 0 25 25" fill="none" xmlns="http://www.w3.org/2000/svg">
<g clip-path="url(#clip0_1_2)">
<rect width="25" height="25" rx="5" fill="#1D6FDB"/>
<path d="M6.5 22C6.21667 22 5.97917 21.9042 5.7875 21.7125C5.59583 21.5208 5.5 21.2833 5.5 21V18.95C5.2 18.6167 4.95833 18.2458 4.775 17.8375C4.59167 17.4292 4.5 16.9833 4.5 16.5V7C4.5 5.61667 5.14167 4.60417 6.425 3.9625C7.70833 3.32083 9.73333 3 12.5 3C15.3667 3 17.4167 3.30833 18.65 3.925C19.8833 4.54167 20.5 5.56667 20.5 7V16.5C20.5 16.9833 20.4083 17.4292 20.225 17.8375C20.0417 18.2458 19.8 18.6167 19.5 18.95V21C19.5 21.2833 19.4042 21.5208 19.2125 21.7125C19.0208 21.9042 18.7833 22 18.5 22H17.5C17.2167 22 16.9792 21.9042 16.7875 21.7125C16.5958 21.5208 16.5 21.2833 16.5 21V20H8.5V21C8.5 21.2833 8.40417 21.5208 8.2125 21.7125C8.02083 21.9042 7.78333 22 7.5 22H6.5ZM12.55 6H18.15H6.95H12.55ZM16.5 13H6.5H18.5H16.5ZM6.5 11H18.5V8H6.5V11ZM9 17C9.41667 17 9.77083 16.8542 10.0625 16.5625C10.3542 16.2708 10.5 15.9167 10.5 15.5C10.5 15.0833 10.3542 14.7292 10.0625 14.4375C9.77083 14.1458 9.41667 14 9 14C8.58333 14 8.22917 14.1458 7.9375 14.4375C7.64583 14.7292 7.5 15.0833 7.5 15.5C7.5 15.9167 7.64583 16.2708 7.9375 16.5625C8.22917 16.8542 8.58333 17 9 17ZM16 17C16.4167 17 16.7708 16.8542 17.0625 16.5625C17.3542 16.2708 17.5 15.9167 17.5 15.5C17.5 15.0833 17.3542 14.7292 17.0625 14.4375C16.7708 14.1458 16.4167 14 16 14C15.5833 14 15.2292 14.1458 14.9375 14.4375C14.6458 14.7292 14.5 15.0833 14.5 15.5C14.5 15.9167 14.6458 16.2708 14.9375 16.5625C15.2292 16.8542 15.5833 17 16 17ZM6.95 6H18.15C17.9 5.71667 17.3625 5.47917 16.5375 5.2875C15.7125 5.09583 14.3833 5 12.55 5C10.7667 5 9.4625 5.10417 8.6375 5.3125C7.8125 5.52083 7.25 5.75 6.95 6ZM8.5 18H16.5C17.05 18 17.5208 17.8042 17.9125 17.4125C18.3042 17.0208 18.5 16.55 18.5 16V13H6.5V16C6.5 16.55 6.69583 17.0208 7.0875 17.4125C7.47917 17.8042 7.95 18 8.5 18Z" fill="white"/>
</g>
<defs>
<clipPath id="clip0_1_2">
<rect width="25" height="25" fill="white"/>
</clipPath>
</defs>
</svg>
