<svg width="25" height="25" viewBox="0 0 25 25" fill="none" xmlns="http://www.w3.org/2000/svg">
<g clip-path="url(#clip0_1_4)">
<rect width="25" height="25" rx="5" fill="#1D6FDB"/>
<path d="M4.16675 18.2292V8.33334C4.16675 6.64931 4.9046 5.54688 6.38029 5.02605C7.85598 4.50521 9.54869 4.21876 11.4584 4.16667L12.2397 2.60417H7.29175V1.04167H17.7084V2.60417H14.323L13.5417 4.16667C15.6077 4.21876 17.3395 4.50087 18.7371 5.01303C20.1346 5.52518 20.8334 6.63195 20.8334 8.33334V18.2292C20.8334 19.2535 20.4819 20.1172 19.7787 20.8203C19.0756 21.5234 18.2119 21.875 17.1876 21.875L18.7501 23.4375V23.9583H16.6667L14.5834 21.875H10.4167L8.33341 23.9583H6.25008V23.4375L7.81258 21.875C6.78828 21.875 5.92456 21.5234 5.22144 20.8203C4.51831 20.1172 4.16675 19.2535 4.16675 18.2292ZM17.1876 14.5833H6.25008H18.7501H17.1876ZM12.5001 18.75C12.9341 18.75 13.303 18.5981 13.6069 18.2943C13.9107 17.9905 14.0626 17.6215 14.0626 17.1875C14.0626 16.7535 13.9107 16.3846 13.6069 16.0807C13.303 15.7769 12.9341 15.625 12.5001 15.625C12.0661 15.625 11.6971 15.7769 11.3933 16.0807C11.0895 16.3846 10.9376 16.7535 10.9376 17.1875C10.9376 17.6215 11.0895 17.9905 11.3933 18.2943C11.6971 18.5981 12.0661 18.75 12.5001 18.75ZM12.448 7.29167H18.3855H6.66675H12.448ZM6.25008 12.5H18.7501V9.375H6.25008V12.5ZM7.81258 19.7917H17.1876C17.639 19.7917 18.0122 19.6441 18.3074 19.349C18.6025 19.0538 18.7501 18.6806 18.7501 18.2292V14.5833H6.25008V18.2292C6.25008 18.6806 6.39765 19.0538 6.69279 19.349C6.98793 19.6441 7.36119 19.7917 7.81258 19.7917ZM12.448 6.25C10.1216 6.25 8.62855 6.37587 7.96883 6.62761C7.30911 6.87935 6.87508 7.1007 6.66675 7.29167H18.3855C18.1772 7.04862 17.7258 6.81424 17.0313 6.58855C16.3369 6.36285 14.8091 6.25 12.448 6.25Z" fill="white"/>
</g>
<defs>
<clipPath id="clip0_1_4">
<rect width="25" height="25" fill="white"/>
</clipPath>
</defs>
</svg>
